<?xml version="1.0" encoding="utf-8"?>
<!-- Generator: Adobe Illustrator 22.0.1, SVG Export Plug-In . SVG Version: 6.00 Build 0)  -->
<svg version="1.1" id="Layer_1" xmlns="http://www.w3.org/2000/svg" xmlns:xlink="http://www.w3.org/1999/xlink" x="0px" y="0px"
	 viewBox="0 0 15590.6 3525.7" style="enable-background:new 0 0 15590.6 3525.7;" xml:space="preserve">
<style type="text/css">
	.st0{fill:#FFCC33;}
	.st1{fill:#FFCC33;stroke:#FFCC33;stroke-width:18.8058;}
	.st2{fill:#FFCC33;stroke:#FFCC33;stroke-width:18.8057;stroke-miterlimit:10;}
</style>
<g>
	<path class="st0" d="M5396.4,991.8c93.1,53.6,166.5,127.3,220.1,221.2c53.5,93.9,80.3,198.1,80.3,312.5v517.2
		c0,23.5-8.1,43.3-24.2,59.4c-16.2,16.2-36.7,24.2-61.6,24.2c-25,0-45.5-7.7-61.6-23.1c-16.2-15.4-24.2-35.6-24.2-60.5v-132
		c-51.4,70.4-116.6,125.8-195.9,166.2c-79.2,40.4-166.5,60.5-261.9,60.5c-111.5,0-212.4-26.7-302.6-80.3
		c-90.2-53.5-161.4-126.9-213.5-220.1c-52.1-93.1-78.1-197-78.1-311.4c0-114.4,26.8-218.6,80.3-312.5
		c53.5-93.9,126.9-167.6,220.1-221.2c93.1-53.5,197-80.3,311.4-80.3C5199.4,911.5,5303.2,938.2,5396.4,991.8z M5311.6,1923.7
		c67.5-39.6,120.7-94.2,159.5-163.9c38.9-69.7,58.3-147.8,58.3-234.4c0-86.5-19.5-164.7-58.3-234.4
		c-38.9-69.7-92.1-124.7-159.5-165.1c-67.5-40.3-143-60.5-226.7-60.5c-83.6,0-159.5,20.2-227.8,60.5
		c-68.2,40.4-121.8,95.4-160.6,165.1c-38.9,69.7-58.3,147.8-58.3,234.4c0,86.6,19.4,164.7,58.3,234.4
		c38.9,69.7,92.4,124.3,160.6,163.9c68.2,39.6,144.1,59.4,227.8,59.4C5168.6,1983.2,5244.1,1963.4,5311.6,1923.7z"/>
	<path class="st0" d="M7854.4,970.9c66.7,41.1,118.8,99.4,156.2,174.9c37.4,75.6,56.1,163.2,56.1,263v633.8c0,25-7.7,45.1-23.1,60.5
		c-15.4,15.4-35.6,23.1-60.5,23.1c-25,0-45.5-7.7-61.6-23.1c-16.2-15.4-24.2-35.6-24.2-60.5v-633.8c0-104.1-26.8-186.7-80.3-247.6
		c-53.6-60.9-123.6-91.3-210.2-91.3c-92.4,0-167.2,30.8-224.5,92.4c-57.2,61.6-85.1,142.3-83.6,242.1v4.4v633.8
		c0,25-7.7,45.1-23.1,60.5c-15.4,15.4-35.6,23.1-60.5,23.1c-25,0-45.5-7.7-61.6-23.1c-16.2-15.4-24.2-35.6-24.2-60.5v-633.8
		c0-104.1-26.8-186.7-80.3-247.6c-53.6-60.9-123.6-91.3-210.2-91.3c-91,0-165.8,30.1-224.5,90.2c-58.7,60.2-88,137.2-88,231.1v651.4
		c0,25-7.7,45.1-23.1,60.5s-35.6,23.1-60.5,23.1c-25,0-45.5-7.7-61.6-23.1c-16.2-15.4-24.2-35.6-24.2-60.5V1008.3
		c0-24.9,8-45.5,24.2-61.6c16.1-16.1,36.7-24.2,61.6-24.2c24.9,0,45.1,8.1,60.5,24.2c15.4,16.2,23.1,36.7,23.1,61.6v48.4
		c41.1-46.9,89.8-83.2,146.3-108.9c56.5-25.7,117.7-38.5,183.7-38.5c80.7,0,153.3,18.4,217.9,55c64.5,36.7,115.9,88,154,154
		c42.5-66,97.9-117.4,166.2-154c68.2-36.7,144.9-55,230-55C7711,909.3,7787.7,929.8,7854.4,970.9z"/>
	<path class="st0" d="M9694.1,991.8c93.1,53.6,166.5,127.3,220.1,221.2c53.5,93.9,80.3,198.1,80.3,312.5
		c0,114.4-26.1,218.2-78.1,311.4c-52.1,93.2-123.2,166.5-213.5,220.1c-90.2,53.6-191.1,80.3-302.6,80.3
		c-95.4,0-182.7-20.1-261.9-60.5c-79.2-40.3-144.5-95.7-195.9-166.2v644.8c0,24.9-8.1,45.5-24.2,61.6
		c-16.2,16.1-36.7,24.2-61.6,24.2c-25,0-45.1-8.1-60.5-24.2c-15.4-16.2-23.1-36.7-23.1-61.6v-492.9c-1.5-4.4-2.2-11-2.2-19.8v-517.2
		c0-114.4,26.8-218.6,80.3-312.5c53.5-93.9,126.9-167.6,220.1-221.2c93.2-53.5,197-80.3,311.4-80.3
		C9497.2,911.5,9600.9,938.2,9694.1,991.8z M9610.5,1923.7c68.2-39.6,121.8-94.2,160.6-163.9c38.9-69.7,58.3-147.8,58.3-234.4
		c0-86.5-19.5-164.7-58.3-234.4c-38.9-69.7-92.4-124.7-160.6-165.1c-68.2-40.3-144.1-60.5-227.8-60.5c-83.6,0-159.2,20.2-226.7,60.5
		c-67.5,40.4-120.7,95.4-159.5,165.1c-38.9,69.7-58.3,147.8-58.3,234.4c0,25,0.7,43.3,2.2,55c1.4,3,2.2,6.6,2.2,11
		c14.6,114.4,62.7,208.3,144.1,281.7c81.4,73.4,180.1,110,296,110C9466.4,1983.2,9542.3,1963.4,9610.5,1923.7z"/>
	<path class="st0" d="M10697.6,2019.5c-56.5-71.1-84.7-162.5-84.7-274V491.1c0-24.9,8-45.1,24.2-60.5c16.1-15.4,35.9-23.1,59.4-23.1
		c24.9,0,45.1,7.7,60.5,23.1c15.4,15.4,23.1,35.6,23.1,60.5v1254.3c0,63.1,12.8,114.4,38.5,154c25.7,39.6,58.3,59.4,97.9,59.4h55
		c22,0,39.6,7.7,52.8,23.1c13.2,15.4,19.8,35.6,19.8,60.5c0,25-9.2,45.1-27.5,60.5c-18.4,15.4-42.2,23.1-71.5,23.1h-28.6
		C10827,2126.2,10754,2090.6,10697.6,2019.5z"/>
	<path class="st0" d="M11641.6,658.4c-22.7-23.5-34.1-52.1-34.1-85.8c0-35.2,11.7-63.8,35.2-85.8c23.5-22,52.1-33,85.8-33
		c32.3,0,60.1,11,83.6,33c23.5,22,35.2,50.6,35.2,85.8c0,33.8-11.8,62.4-35.2,85.8c-23.5,23.5-52.1,35.2-85.8,35.2
		C11692.6,693.6,11664.3,681.9,11641.6,658.4z M11666.9,2102c-16.2-16.1-24.2-36.7-24.2-61.6V1008.3c0-24.9,8-45.5,24.2-61.6
		c16.1-16.1,36.7-24.2,61.6-24.2c24.9,0,45.1,8.1,60.5,24.2c15.4,16.2,23.1,36.7,23.1,61.6v1032.1c0,25-7.7,45.5-23.1,61.6
		c-15.4,16.2-35.6,24.2-60.5,24.2C11703.6,2126.2,11683,2118.1,11666.9,2102z"/>
	<path class="st0" d="M13432.9,991.8c93.2,53.6,166.5,127.3,220.1,221.2c53.5,93.9,80.3,198.1,80.3,312.5v517.2
		c0,23.5-8.1,43.3-24.2,59.4c-16.2,16.2-36.7,24.2-61.6,24.2c-25,0-45.5-7.7-61.6-23.1c-16.1-15.4-24.2-35.6-24.2-60.5v-132
		c-51.4,70.4-116.6,125.8-195.9,166.2c-79.2,40.4-166.5,60.5-261.9,60.5c-111.5,0-212.4-26.7-302.6-80.3
		c-90.2-53.5-161.4-126.9-213.5-220.1c-52.1-93.1-78.1-197-78.1-311.4c0-114.4,26.7-218.6,80.3-312.5
		c53.5-93.9,126.9-167.6,220.1-221.2c93.2-53.5,197-80.3,311.4-80.3C13235.9,911.5,13339.7,938.2,13432.9,991.8z M13348.2,1923.7
		c67.5-39.6,120.7-94.2,159.5-163.9c38.9-69.7,58.3-147.8,58.3-234.4c0-86.5-19.5-164.7-58.3-234.4
		c-38.9-69.7-92.1-124.7-159.5-165.1c-67.5-40.3-143-60.5-226.7-60.5c-83.6,0-159.6,20.2-227.8,60.5
		c-68.2,40.4-121.8,95.4-160.6,165.1c-38.9,69.7-58.3,147.8-58.3,234.4c0,86.6,19.4,164.7,58.3,234.4
		c38.8,69.7,92.4,124.3,160.6,163.9c68.2,39.6,144.1,59.4,227.8,59.4C13205.1,1983.2,13280.7,1963.4,13348.2,1923.7z"/>
	<path class="st0" d="M15083.3,933.5c35.9,16.2,53.9,38.9,53.9,68.2c0,8.8-0.8,15.4-2.2,19.8c-5.9,20.6-15.1,34.5-27.5,41.8
		c-12.5,7.4-29.7,11-51.7,11c-13.2,0-36-1.4-68.2-4.4c-11.8-1.4-29.4-2.2-52.8-2.2c-110,0-199.9,29.4-269.6,88
		c-69.7,58.7-104.5,135-104.5,228.9v658c0,26.4-7.3,47-22,61.6c-14.7,14.7-35.2,22-61.6,22c-26.4,0-47-7.3-61.6-22
		c-14.7-14.6-22-35.2-22-61.6V1006.1c0-26.4,7.3-46.9,22-61.6c14.6-14.6,35.2-22,61.6-22c26.4,0,46.9,7.4,61.6,22
		c14.6,14.7,22,35.2,22,61.6v96.8c42.6-61.6,96.8-109.3,162.9-143c66-33.7,137.1-50.6,213.4-50.6
		C14998.6,909.3,15047.4,917.3,15083.3,933.5z"/>
</g>
<g>
	<path class="st1" d="M10640.2,3146.4c-5.4-5.4-8.1-12.3-8.1-20.7V2606c0-8.4,2.7-15.3,8.1-20.7c5.4-5.4,12.3-8.1,20.7-8.1h133.1
		c55.7,0,105.5,12.3,149.3,37c43.9,24.6,78,58.8,102.4,102.4c24.4,43.6,36.6,93.3,36.6,149c0,55.7-12.2,105.5-36.6,149.3
		c-24.4,43.9-58.5,78.1-102.4,102.8c-43.9,24.6-93.7,37-149.3,37h-133.1C10652.5,3154.5,10645.6,3151.8,10640.2,3146.4z
		 M10793.9,3102.8c44.8,0,84.8-10.2,119.8-30.7c35-20.4,62.4-48.7,82.1-84.6c19.7-36,29.6-76.6,29.6-122c0-45.3-9.9-86-29.6-122
		c-19.7-36-47.1-64.1-82.1-84.3c-35-20.2-74.9-30.3-119.8-30.3h-104.2v473.8H10793.9z"/>
	<path class="st1" d="M11483.3,3146c-5.7-5.7-8.5-12.4-8.5-20.3V2606c0-8.4,2.8-15.3,8.5-20.7c5.7-5.4,12.4-8.1,20.3-8.1
		c8.4,0,15.3,2.7,20.7,8.1c5.4,5.4,8.1,12.3,8.1,20.7v519.7c0,7.9-2.7,14.7-8.1,20.3c-5.4,5.7-12.3,8.5-20.7,8.5
		C11495.7,3154.5,11488.9,3151.7,11483.3,3146z"/>
	<path class="st1" d="M12394.4,2874c5.4,5.2,8.1,12,8.1,20.3v183.3c0,8.4-2.7,15.3-8.1,20.7c-45.8,42.4-106.2,63.6-181.1,63.6
		c-52.2,0-100.3-13.3-144.1-39.9c-43.9-26.6-78.7-62.6-104.6-107.9c-25.9-45.3-38.8-94.8-38.8-148.6c0-53.2,12.8-102.5,38.4-147.9
		c25.6-45.3,60.4-81.3,104.2-107.9c43.9-26.6,92.2-39.9,144.9-39.9c35.5,0,67.8,5.2,96.8,15.5c29.1,10.3,57.2,26.9,84.3,49.5
		c5.4,3.9,8.1,9.6,8.1,17c0,4-1,7.5-3,10.7c-2,3.2-4.7,5.5-8.1,7c-1,3.5-3.2,6.3-6.7,8.5c-3.5,2.2-7.2,3.3-11.1,3.3
		c-6.9,0-13.1-2.5-18.5-7.4c-19.2-17.2-40.2-29.8-62.8-37.7c-22.7-7.9-49-11.8-79.1-11.8c-41.4,0-79.8,11-115.3,32.9
		c-35.5,21.9-63.7,51.4-84.6,88.3c-21,37-31.4,76.9-31.4,119.8c0,43.9,10.3,84.3,31,121.2c20.7,37,48.8,66.3,84.3,88
		c35.5,21.7,74.2,32.5,116.1,32.5c47.8,0,92.2-14.1,133.1-42.1v-147.9H12231c-8.4,0-15.3-2.5-20.7-7.4c-5.4-4.9-8.1-11.1-8.1-18.5
		c0-7.4,2.7-13.4,8.1-18.1c5.4-4.7,12.3-7,20.7-7h142.7C12382,2866.2,12388.9,2868.8,12394.4,2874z"/>
	<path class="st1" d="M12805.7,3146c-5.7-5.7-8.5-12.4-8.5-20.3V2606c0-8.4,2.8-15.3,8.5-20.7c5.7-5.4,12.4-8.1,20.3-8.1
		c8.4,0,15.3,2.7,20.7,8.1c5.4,5.4,8.1,12.3,8.1,20.7v519.7c0,7.9-2.7,14.7-8.1,20.3c-5.4,5.7-12.3,8.5-20.7,8.5
		C12818.2,3154.5,12811.4,3151.7,12805.7,3146z"/>
	<path class="st1" d="M13668,2584.6c4.9,4.9,7.4,11.3,7.4,19.2c0,7.4-2.5,13.6-7.4,18.5c-4.9,4.9-11.3,7.4-19.2,7.4h-175.9v496
		c0,7.9-2.7,14.7-8.1,20.3c-5.4,5.7-12.3,8.5-20.7,8.5c-7.9,0-14.7-2.8-20.3-8.5c-5.7-5.7-8.5-12.4-8.5-20.3v-496H13240
		c-7.9,0-14.3-2.5-19.2-7.4c-4.9-4.9-7.4-11.1-7.4-18.5c0-7.9,2.5-14.3,7.4-19.2c4.9-4.9,11.3-7.4,19.2-7.4h408.8
		C13656.7,2577.2,13663.1,2579.7,13668,2584.6z"/>
	<path class="st1" d="M14397.7,3125.7c0,7.9-2.8,14.7-8.5,20.3c-5.7,5.7-12.5,8.5-20.3,8.5c-12.8,0-21.9-5.9-27.4-17.7L14292,3017
		h-286.1l-49.5,119.8c-4,11.8-12.8,17.7-26.6,17.7c-8.4,0-15.2-2.8-20.3-8.5c-5.2-5.7-7.8-12.4-7.8-20.3c0-4.9,0.7-9.1,2.2-12.6
		l217.3-516c5.4-13.3,14.8-20,28.1-20s22.4,6.7,27.3,20l218.1,516.7C14396.7,3117.3,14397.7,3121.3,14397.7,3125.7z M14026.6,2967.5
		h245.4l-122.7-296.4L14026.6,2967.5z"/>
	<path class="st1" d="M14763.2,3146c-5.7-5.7-8.5-12.4-8.5-20.3V2606c0-7.9,2.8-14.7,8.5-20.3c5.7-5.6,12.4-8.5,20.3-8.5
		c8.4,0,15.3,2.7,20.7,8.1c5.4,5.4,8.1,12.3,8.1,20.7v493.8h289.1c8.4,0,15.3,2.6,20.7,7.8c5.4,5.2,8.1,11.7,8.1,19.6
		s-2.7,14.4-8.1,19.6c-5.4,5.2-12.3,7.8-20.7,7.8h-317.9C14775.7,3154.5,14768.9,3151.7,14763.2,3146z"/>
</g>
<g>
	<path class="st2" d="M1967.9,137.6c-879.3,0-1592.1,712.8-1592.1,1592.1s712.8,1592.1,1592.1,1592.1S3560.1,2609,3560.1,1729.7
		S2847.2,137.6,1967.9,137.6z M2725.8,2064.3l-747.5-38.8l-40.3,13.7l86.1,165.6c61.2,114.1,3.6,253.6-117.4,294.6
		c-100.8,34.2-206.5-12.4-254.1-108.6L1505.3,2111c-107.9-30.9-195.8-113.4-232.3-221c-63.8-188.2,40.6-388.4,222.1-450l255.4-86.6
		l569.7-485.4c40.2-36.1,98.6-18.5,114.6,28.6l364.6,1075.2C2815.3,2018.9,2779.6,2068.5,2725.8,2064.3z"/>
	<path class="st2" d="M1879,1909.3l-136.7-403.2l-201.6,68.4c-107.5,36.5-172,155.7-133.2,270s162.5,169.7,270,133.2L1879,1909.3z"
		/>
	<path class="st2" d="M1803.6,2084.8c-80.6,27.3-94.1,31.9-134.4,45.6l106.5,203.7c18.1,31.3,51.8,42.4,85.4,31
		c40.3-13.7,55.8-56.4,35.4-94.4L1803.6,2084.8z"/>
	<polygon class="st2" points="1869.8,1440.4 2020.2,1883.9 2630.8,1916.6 2334.5,1043 	"/>
</g>
</svg>
